<svg enable-background="new 0 0 149.1 140" viewBox="0 0 149.1 140" xmlns="http://www.w3.org/2000/svg"><g fill="#627b37"><path d="m71.4 93.1c-.7-.5-1.4-.5-2.1-.3l-.5-1.8c4.3-1.1 8.7-1.2 13 .2 1 .3 1.9.9 2.9.2 1.6-1.1-.1-2.1-.4-3-.9-3.2-.7-6 2.1-8 1.8-1.3 3.8-1.3 5.6 0 2.6 2 3.3 4.8 1.9 7.6-1.3 2.6-.4 3.7 1.7 5.1 2.7 1.8 2.7 4.9 2.1 7.7-.7 3.1-3.6 2.8-5.7 2.6-5.9-.6-11 4.4-16.6 2.1v-1.9c7-.1 7.8-.8 7.3-6.2-.8-9.1-7.8-1.8-11.3-4.3z"/><path d="m62.4 109.6c3-1.6 6.2-1.6 9.7-.4 4.2 1.5 8.3 1.5 12.6-.3 5.1-2.1 10.2-.4 15.2.7l-.2 1.6c-7.6 1.7-13.4 9.7-21.9 5 2.5-2 5.5 0 8.9-2.6-7.6-1.1-14-2.2-20.5-2.9-1.1-.1-2.1.1-3 .5z"/><path d="m57.9 80.4c1.9-1.2 3.8-1.3 5.6.1 2.6 2 3 4.8 2 7.6-1.4 3.8-.1 3.9 3.2 3 .1 0 .1 0 .2-.1l.5 1.9c-1.1.5-2 2-2.3 3.6-1.2 5.7.2 7.1 7.6 7.1h.8v1.9c-7.6 1.6-13.9-2.7-21-2.5-3.4.1-4-6.8-.5-9.7 2.1-1.8 2.7-3.1 1.9-5.7-.9-2.6-.7-5.4 2-7.2z"/><path d="m58.9 130.6c-.3-6.1-1.9-11.9-4.4-17.4-1.1-2.3-3.6-2.4-5.2-.1-1.4 2.1 1.1 15.5 3.2 17.6.8-1.5.2-4 2.7-4.2 2.8 0 2.1 2.8 3.7 4.1zm.1-15.8c-2.2 2.9.4 5.6 1.1 8.4.3 1.2 1.4 1.6 2.3.9 4.1-3 8.3-1.4 12.5-.7 7.6 1.2 20.1-4.7 24.7-12.1l.2-1.6c.5.1.9.2 1.4.3 2 .4 2.4 2.4.5 3.8-5.8 3.9-11.1 8.6-17.5 11.5-3.9 1.8-7.9.4-11.8-.3-2.9-.5-5.9-1.5-8.6.7-.9.7-2.4 1.4-2.1 2.6 1.7 6-2 5.9-6.1 5.3-5.1 1.2-7.3-1.1-7.5-6.2-.2-3.8-1-7.6-1.4-11.4-.2-2-1.2-4.6 1.4-5.8 2.3-1.1 5.3-1.3 7.1.5 2.2 2.2 3.5 1.5 5.4.1.6-.4 1.1-.8 1.7-1.1l.8 1.6c-1.6.6-3 2-4.1 3.5z"/></g><path d="m36.8 0h75c6.7 12.1 13.5 24.1 20.1 36.2 5.3 9.6 10.3 19.4 15.7 29 1 1.8 1.5 3.4 1.5 5.1 0 1.6-.5 3.2-1.5 5.1-11.2 20.1-22.1 40.3-33.1 60.5-.7 1.3-1.2 2.7-1.8 4.1-25.3 0-50.7 0-76 0-12-22.2-23.9-44.4-35.9-66.7-.6-1.1-.8-2-.8-3 0-1.2.4-2.3 1-3.6 12-22.2 23.9-44.4 35.8-66.7zm38 2.2c-10.7 0-21.3.1-32-.1-3.6-.1-5.8 1.2-7.5 4.4-10.2 19.7-20.6 39.3-31.2 58.7-2 3.7-2 6.5 0 10.2 10.4 19.2 20.7 38.4 30.9 57.7 1.9 3.6 4.3 4.9 8.3 4.9 21-.2 42-.1 62.9 0 3.6 0 5.7-1.1 7.5-4.4 10.4-19.5 21-39 31.8-58.3 1.9-3.5 2.1-6.2.1-9.7-10.9-19.8-21.7-39.8-32.4-59.7-1.5-2.8-3.4-3.6-6.4-3.6-10.7 0-21.4-.1-32-.1z" fill="#7a6553"/><path d="m70.6 87.3c1.5 2.4 4.2 5.1 6.8 2.5 1.9-1.8 2.5-5.1 3-7.5-1-.1-2-.3-2.9-.4v2c0 1.7 2.5 2 2.9.4 1.5-5-3.3-10.6-8.3-7.4-3.8 2.5-3.3 8.9-.2 11.7.6.5 1.6.6 2.1 0 2.4-2.6 3.6-6.3 1.9-9.6-.5-.9-1.7-.9-2.4-.3-1.5 1.4-3.1 3.2-2.7 5.4.3 1.6 2.1 2.3 3.5 2.4 1.5.2 3-.5 3.9-1.7 1.2-1.6-.1-3.6-1.3-4.8-.5.8-1 1.7-1.5 2.5.5.1.9.3 1.4.3 1.5.2 2.5-1.3 1.5-2.5-.5-.5-.8-1.1-1.1-1.7-.9-1.7-3.5-.2-2.6 1.5.4.9.9 1.6 1.6 2.3.5-.8 1-1.7 1.5-2.5-.5-.1-.9-.2-1.4-.3-1.5-.4-2.5 1.4-1.5 2.5.3.3.6.6.7 1 .1.2.1.1.1.1-.2.2-.8.3-1.3.2-.4 0-.6-.4-.6-.2-.1-.9 1.3-2 1.9-2.5-.8-.1-1.6-.2-2.4-.3 1 2 0 4.4-1.5 6h2.1c-1.5-1.4-2-4.1-1.1-6 .5-1.2 1.9-2 3.2-1.4 1.7.7 2 2.8 1.5 4.4 1 .1 2 .3 2.9.4 0-.7 0-1.4 0-2 0-1.7-2.6-2.1-2.9-.4-.4 1.7-.7 3.3-1.4 4.9-.3.6-.6 1.3-1.1 1.6-.3.2-1.6-1.8-1.8-2.1-.9-1.7-3.5-.2-2.5 1.5z" fill="#627b37"/><path d="m75.7 87.9c.4-1.4 1-2.7 1.4-4.1.5-1.9-2.4-2.7-2.9-.8-.4 1.4-1 2.7-1.4 4.1-.5 1.8 2.4 2.6 2.9.8z" fill="#627b37"/></svg>