<svg enable-background="new 0 0 141.3 149.9" viewBox="0 0 141.3 149.9" xmlns="http://www.w3.org/2000/svg"><path d="m103.6 1h-66c-1.2 0-2.3.7-2.9 1.8l-33.4 70.8c-.4.9-.4 1.8 0 2.7l33.5 70.8c.5 1.1 1.6 1.8 2.9 1.8h65.9c1.2 0 2.3-.7 2.9-1.8l33.5-70.8c.4-.9.4-1.8 0-2.7l-33.5-70.8c-.6-1.1-1.7-1.8-2.9-1.8z" fill="none" stroke="#7f6b5b" stroke-miterlimit="10" stroke-width="2"/><g clip-rule="evenodd" fill-rule="evenodd"><path d="m92.1 86.2c.1-.4.2-.9.2-1.3 2.9 0 5.7.1 8.6 0 7.1-.2 9-3.5 5.6-9.5-4-7.1-6.7-14.5-7.2-22.9-.7-12.1-8.5-19-19.1-17.3-2.7.4-3.7 0-5.2-2.2-5-6.8-12.3-6.4-19.4-5-5.8 1.1-9.3 5.4-9.8 11.3-.5 5.6-.6 11.3-1.4 16.9-.8 5.8 2.7 10.5 4.8 15.5 3.2 7.3 2.6 10.1-4.3 14.3-2.2 1.3-4.4 2.8-6.6 4.1-4.3 2.4-6.4 6.1-7.2 10.8-1.2 7.3-.7 7.9 6.7 7.9h7.3 61.2c1.8 0 4.2 1.1 4.5-2.5.6-6.3-2-11.6-7.7-14.5-3.6-2-7.3-3.8-11-5.6z" fill="#fdfdfd"/><path d="m92.1 86.2c3.7 1.8 7.4 3.6 11.1 5.5 5.7 2.9 8.3 8.2 7.7 14.5-.3 3.6-2.7 2.5-4.5 2.5-20.4.1-40.8 0-61.2 0-2.4 0-4.8 0-7.3 0-7.4 0-7.9-.6-6.7-7.9.8-4.7 2.9-8.4 7.2-10.8 2.3-1.3 4.4-2.7 6.6-4.1 6.9-4.2 7.5-7 4.3-14.3-2.2-4.9-5.7-9.6-4.8-15.5.8-5.6.9-11.3 1.4-16.9.5-5.9 4-10.2 9.8-11.3 7-1.3 14.4-1.8 19.4 5 1.6 2.1 2.6 2.6 5.2 2.2 10.6-1.7 18.3 5.2 19.1 17.3.5 8.3 3.2 15.8 7.2 22.9 3.4 6.1 1.5 9.4-5.6 9.5-2.9.1-5.7 0-8.6 0-.2.5-.2.9-.3 1.4zm-30.6 19.4h21.8c6.5 0 7.9-2.5 4.7-8.4-1.2-2.2-3.1-3.7-5.2-4.9-3.3-1.9-6.6-3.7-10-5.5-3.2-1.7-4.5-4.2-4.8-7.9-.5-6.4 3.5-11.2 6.2-16 2-3.5 2.5-6.6 1.6-9.6-.9-3.1-1.1-6.1-1.1-9.2.2-11.2-6.1-16.2-17.3-13.6-6.5 1.5-8.9 4.5-9 11.3 0 2.6.8 5.6-.2 7.7-3.8 8.3.5 15.1 3.8 22 3.4 7.1 2.3 12-4.4 16.1-2.9 1.8-5.9 3.6-8.8 5.4-3.3 2.1-4.9 5.1-5 9.1-.1 2.6.5 3.6 3.4 3.5 8.1-.1 16.2 0 24.3 0zm39.2 0c1.9-.8 5.4 1.6 7-1 1.3-2.2.2-5.4-1.7-7.7-1.1-1.3-2.6-2.2-4.2-3-3.6-1.7-7.2-3.4-10.7-5.2-1.7-.9-3.3-2.5-2.9-4.5.4-2.2 2.6-2.4 4.6-2.4 3.3 0 6.6.1 9.8-.1 2.7-.1 3.9-1.3 2.2-4-5.3-8.6-7.6-18.1-8.7-28.2-.8-7.5-6.3-11.9-13.3-11.8-3.5 0-6.1.7-5.3 5.3.5 3.2.2 6.4.9 9.7.7 3.4 1.5 7.5-1 10.5-2.8 3.4-3.8 7.7-6.1 11.3-1.4 2.1-1.5 6.2 0 6.7 5.4 1.5 7.3 7.2 12.5 8.9 5.5 1.8 7.9 6.6 8.2 12.1.2 3 1 4 3.9 3.6 1.3-.3 2.7-.2 4.8-.2z" fill="#1a1a1a"/><path d="m61.5 105.6c-8.1 0-16.3-.1-24.4.1-2.9.1-3.4-.9-3.4-3.5.1-4 1.7-7 5-9.1 2.9-1.9 5.9-3.6 8.8-5.4 6.8-4.2 7.9-9.2 4.5-16.2-3.3-6.8-7.6-13.6-3.8-22 1-2.2.1-5.1.2-7.7.1-6.8 2.5-9.8 9-11.3 11.2-2.6 17.5 2.4 17.5 13.7 0 3.1.1 6.1 1.1 9.2.9 3.1.3 6.2-1.6 9.6-2.8 4.8-6.7 9.6-6.2 16 .3 3.7 1.6 6.2 4.8 7.9 3.4 1.8 6.7 3.6 10 5.5 2.1 1.2 4 2.6 5.2 4.9 3.2 5.9 1.8 8.4-4.7 8.4-7.4-.1-14.7-.1-22-.1z" fill="#fdfdfd"/><path d="m100.7 105.6c-2.1 0-3.5-.1-4.8 0-2.9.4-3.7-.6-3.9-3.6-.3-5.5-2.8-10.3-8.2-12.1-5.2-1.7-7.1-7.4-12.5-8.9-1.5-.4-1.3-4.6 0-6.7 2.4-3.6 3.3-7.9 6.1-11.3 2.5-3 1.7-7.1 1-10.5-.7-3.3-.4-6.5-.9-9.7-.8-4.6 1.8-5.3 5.3-5.3 7-.1 12.5 4.3 13.3 11.8 1.1 10.1 3.3 19.7 8.7 28.4 1.7 2.7.5 3.9-2.2 4-3.3.1-6.6.1-9.8.1-2 0-4.1.2-4.6 2.4-.4 2 1.1 3.6 2.9 4.5 3.5 1.8 7.1 3.5 10.7 5.2 1.6.7 3 1.6 4.2 3 1.9 2.3 3 5.4 1.7 7.7-1.6 2.6-5.2.2-7 1z" fill="#fdfdfd"/></g></svg>